<svg width="102" height="100" viewBox="0 0 102 100" fill="none" xmlns="http://www.w3.org/2000/svg">
<path d="M26.7071 13C31.7404 13 35.5904 13.9167 38.2571 15.75C40.9571 17.5833 42.3071 20.45 42.3071 24.35C42.3071 26.3833 41.9404 28.1333 41.2071 29.6C40.5071 31.0333 39.4737 32.2167 38.1071 33.15C36.7404 34.05 35.0737 34.7167 33.1071 35.15C31.1404 35.5833 28.8904 35.8 26.3571 35.8H23.2071V48H16.9071V13.85C18.3737 13.5167 19.9904 13.3 21.7571 13.2C23.5571 13.0667 25.2071 13 26.7071 13ZM27.1571 18.45C25.5571 18.45 24.2404 18.5 23.2071 18.6V30.4H26.2571C29.2904 30.4 31.6237 29.9833 33.2571 29.15C34.8904 28.2833 35.7071 26.6667 35.7071 24.3C35.7071 23.1667 35.4904 22.2167 35.0571 21.45C34.6237 20.6833 34.0237 20.0833 33.2571 19.65C32.4904 19.2167 31.5737 18.9167 30.5071 18.75C29.4737 18.55 28.3571 18.45 27.1571 18.45Z" fill="#3F88C5"/>
<path d="M73.7213 17.2501C74.2546 19.0501 74.8213 20.9334 75.4213 22.9001C76.0213 24.8334 76.638 26.7834 77.2713 28.7501C77.938 30.6834 78.588 32.6001 79.2213 34.5001C79.888 36.3668 80.5213 38.1334 81.1213 39.8001C81.6213 38.0001 82.1046 36.0501 82.5713 33.9501C83.038 31.8168 83.5046 29.6168 83.9713 27.3501C84.438 25.0501 84.888 22.7168 85.3213 20.3501C85.788 17.9834 86.2213 15.6501 86.6213 13.3501H93.1213C91.9546 19.6168 90.6546 25.6501 89.2213 31.4501C87.788 37.2168 86.188 42.7334 84.4213 48.0001H78.4213C75.8213 41.2668 73.3046 33.9168 70.8713 25.9501C69.638 29.9834 68.388 33.8168 67.1213 37.4501C65.8546 41.0834 64.588 44.6001 63.3213 48.0001H57.3213C55.5213 42.7334 53.9046 37.2168 52.4713 31.4501C51.0713 25.6501 49.788 19.6168 48.6213 13.3501H55.3713C55.7713 15.6168 56.188 17.9334 56.6213 20.3001C57.088 22.6668 57.5546 25.0001 58.0213 27.3001C58.5213 29.5668 59.0213 31.7668 59.5213 33.9001C60.0213 36.0334 60.5213 38.0001 61.0213 39.8001C61.6546 38.1001 62.288 36.3168 62.9213 34.4501C63.588 32.5501 64.238 30.6334 64.8713 28.7001C65.5046 26.7334 66.1046 24.7834 66.6713 22.8501C67.2713 20.9168 67.8213 19.0501 68.3213 17.2501H73.7213Z" fill="#3F88C5"/>
<path d="M37.399 90.0001C36.5324 88.6668 35.5324 87.2668 34.399 85.8001C33.2657 84.3334 32.0657 82.9168 30.799 81.5501C29.5657 80.1834 28.2824 78.8834 26.949 77.6501C25.6157 76.4168 24.299 75.3501 22.999 74.4501V90.0001H16.699V55.3501H22.999V69.6501C24.099 68.5501 25.249 67.3834 26.449 66.1501C27.649 64.8834 28.8324 63.6168 29.999 62.3501C31.199 61.0501 32.3324 59.8001 33.399 58.6001C34.4657 57.4001 35.4324 56.3168 36.299 55.3501H43.849C42.749 56.6168 41.5824 57.9334 40.349 59.3001C39.1157 60.6668 37.849 62.0501 36.549 63.4501C35.249 64.8168 33.9324 66.1834 32.599 67.5501C31.299 68.9168 30.0157 70.2168 28.749 71.4501C30.149 72.5168 31.5657 73.7668 32.999 75.2001C34.4657 76.6001 35.899 78.1168 37.299 79.7501C38.699 81.3501 40.0324 83.0334 41.299 84.8001C42.599 86.5334 43.7824 88.2668 44.849 90.0001H37.399Z" fill="#3F88C5"/>
<path d="M73.9408 90.75C71.3408 90.75 69.0075 90.3501 66.9408 89.5501C64.8742 88.7501 63.1242 87.5834 61.6908 86.0501C60.2575 84.4834 59.1575 82.5833 58.3908 80.35C57.6242 78.1167 57.2408 75.5501 57.2408 72.6501C57.2408 69.7501 57.6742 67.1833 58.5408 64.95C59.4408 62.7167 60.6575 60.8333 62.1908 59.3C63.7242 57.7333 65.5242 56.55 67.5908 55.75C69.6575 54.95 71.8742 54.55 74.2408 54.55C75.6742 54.55 76.9742 54.6668 78.1408 54.9001C79.3075 55.1001 80.3242 55.3333 81.1908 55.6C82.0575 55.8667 82.7742 56.1501 83.3408 56.4501C83.9075 56.7501 84.3075 56.9667 84.5408 57.1L82.6908 62.25C81.8908 61.75 80.7408 61.2833 79.2408 60.85C77.7742 60.3833 76.1742 60.1501 74.4408 60.1501C72.9408 60.1501 71.5408 60.4168 70.2408 60.9501C68.9408 61.4501 67.8075 62.2167 66.8408 63.25C65.9075 64.2833 65.1742 65.5834 64.6408 67.1501C64.1075 68.7168 63.8408 70.5333 63.8408 72.6C63.8408 74.4333 64.0408 76.1168 64.4408 77.6501C64.8742 79.1834 65.5242 80.5168 66.3908 81.6501C67.2575 82.7501 68.3575 83.6167 69.6908 84.25C71.0242 84.85 72.6242 85.1501 74.4908 85.1501C76.7242 85.1501 78.5408 84.9333 79.9408 84.5C81.3408 84.0333 82.4242 83.6 83.1908 83.2L84.8908 88.35C84.4908 88.6167 83.9408 88.8834 83.2408 89.1501C82.5742 89.4168 81.7742 89.6833 80.8408 89.95C79.9075 90.1833 78.8575 90.3667 77.6908 90.5C76.5242 90.6667 75.2742 90.75 73.9408 90.75Z" fill="#3F88C5"/>
</svg>
